{"title":"Rolling Stones - At the Max 1991 720p AC3 5.1 x264-[MULVAcoded]","uid":12181932,"size":1386666613,"categoryP":"video","categoryS":"music_videos","magnet":"?xt=urn:btih:d0b54893071246580b336a97b0e7c36e6ce6e7ec&amp;dn=Rolling+Stones+-+At+the+Max+1991+720p+AC3+5.1+x264-%5BMULVAcoded%5D&amp;tr=udp%3A%2F%2Ftracker.openbittorrent.com%3A80&amp;tr=udp%3A%2F%2Fopen.demonii.com%3A1337&amp;tr=udp%3A%2F%2Ftracker.coppersurfer.tk%3A6969&amp;tr=udp%3A%2F%2Fexodus.desync.com%3A6969","seeders":1,"leechers":0,"uploader":"Mulva1989","files":4,"time":1438467378,"description":"The Rolling Stones At the Max Concert 1991 720p BRrip AC3 5.1 x264-[MULVAcoded] \n\nRolling Stones: Live at the Max (also known as Stones at the Max) is a concert film by The Rolling Stones released in 1991. It was specially filmed in IMAX during the Urban Jungle Tour in Europe in 1990. It was one of the first attempts at presenting entertainment in the IMAX format.\n\nTrack list :\n1.\tOpening Logos\n2.\t&quot;Continental Drift&quot;\n3.\t&quot;Start Me Up&quot;\n4.\t&quot;Sad Sad Sad&quot;\n5.\t&quot;Tumbling Dice&quot;\n6.\t&quot;Ruby Tuesday&quot;\n7.\t&quot;Rock and a Hard Place&quot;\n8.\t&quot;Honky Tonk Women&quot;\n9.\t&quot;You Can't Always Get What You Want&quot;\n10.\t&quot;Happy&quot;\n11.\t&quot;Paint It Black&quot;\n12.\t&quot;2000 Light Years from Home&quot;\n13.\t&quot;Sympathy for the Devil&quot;\n14.\t&quot;Street Fighting Man&quot;\n15.\t&quot;It's Only Rock 'n Roll (But I Like It)&quot;\n16.\t&quot;Brown Sugar&quot;\n17.\t&quot;(I Can't Get No) Satisfaction&quot;\n18.\tEnd Credits\n\nCover @ &lt;a href=&quot;\nhttps://yuq.me/users/50/321/4xoystvZ7J.jpg&quot; rel=&quot;nofollow&quot; target=&quot;_NEW&quot;&gt;\nhttps://yuq.me/users/50/321/4xoystvZ7J.jpg&lt;/a&gt;\n\nScreens @ &lt;a href=&quot;\nhttps://yuq.me/users/50/321/g1Liw3DtWY.jpg&quot; rel=&quot;nofollow&quot; target=&quot;_NEW&quot;&gt;\nhttps://yuq.me/users/50/321/g1Liw3DtWY.jpg&lt;/a&gt; &lt;a href=&quot;\nhttps://yuq.me/users/50/321/qE5ns8FxS6.jpg&quot; rel=&quot;nofollow&quot; target=&quot;_NEW&quot;&gt;\nhttps://yuq.me/users/50/321/qE5ns8FxS6.jpg&lt;/a&gt; &lt;a href=&quot;\nhttps://yuq.me/users/50/321/DkCd9L0Ss5.jpg&quot; rel=&quot;nofollow&quot; target=&quot;_NEW&quot;&gt;\nhttps://yuq.me/users/50/321/DkCd9L0Ss5.jpg&lt;/a&gt;\n\n\nVideo\nID : 1\nFormat : AVC\nFormat/Info : Advanced Video Codec\nFormat profile : &lt;a class=&quot;__cf_email__&quot; href=&quot;/cdn-cgi/l/email-protection&quot; data-cfemail=&quot;fdb5949a95bdb1c8d3cd&quot;&gt;[email&amp;#160;protected]&lt;/a&gt;&lt;script data-cfhash='f9e31' type=&quot;text/javascript&quot;&gt;\n/* &lt;![CDATA[ */!function(){try{var t=&quot;currentScript&quot;in document?document.currentScript:function(){for(var t=document.getElementsByTagName(&quot;script&quot;),e=t.length;e--;)if(t[e].getAttribute(&quot;data-cfhash&quot;))return t[e]}();if(t&amp;&amp;t.previousSibling){var e,r,n,i,c=t.previousSibling,a=c.getAttribute(&quot;data-cfemail&quot;);if(a){for(e=&quot;&quot;,r=parseInt(a.substr(0,2),16),n=2;a.length-n;n+=2)i=parseInt(a.substr(n,2),16)^r,e+=String.fromCharCode(i);e=document.createTextNode(e),c.parentNode.replaceChild(e,c)}t.parentNode.removeChild(t);}}catch(u){}}()/* ]]&gt; */&lt;/script&gt;\nFormat settings, CABAC : Yes\nFormat settings, ReFrames : 16 frames\nCodec ID : V_MPEG4/ISO/AVC\nDuration : 1h 24mn\nBit rate : 1 499 Kbps\nWidth : 1 280 pixels\nHeight : 720 pixels\nDisplay aspect ratio : 16:9\nFrame rate mode : Constant\nFrame rate : 23.976 fps\nColor space : YUV\nChroma subsampling : 4:2:0\nBit depth : 8 bits\nScan type : Progressive\nBits/(Pixel*Frame) : 0.068\nStream size : 908 MiB (69%)\nWriting library : x264 core 130 r2273 b3065e6\nEncoding settings : cabac=1 / ref=16 / deblock=1:0:0 / analyse=0x3:0x113 / me=umh / subme=8 / psy=1 / psy_rd=1.00:0.00 / mixed_ref=1 / me_range=16 / chroma_me=1 / trellis=1 / 8x8dct=1 / cqm=0 / deadzone=21,11 / fast_pskip=1 / chroma_qp_offset=-2 / threads=6 / lookahead_threads=3 / sliced_threads=0 / nr=0 / decimate=1 / interlaced=0 / bluray_compat=0 / constrained_intra=0 / bframes=16 / b_pyramid=2 / b_adapt=2 / b_bias=0 / direct=3 / weightb=1 / open_gop=0 / weightp=2 / keyint=240 / keyint_min=24 / scenecut=40 / intra_refresh=0 / rc_lookahead=50 / rc=crf / mbtree=1 / crf=25.0 / qcomp=0.60 / qpmin=0 / qpmax=69 / qpstep=4 / ip_ratio=1.40 / aq=1:1.00\nLanguage : English\nDefault : Yes\nForced : No\nColor primaries : BT.709\nTransfer characteristics : BT.709\nMatrix coefficients : BT.709\nColor range : Limited\n\nAudio\nID : 2\nFormat : AC-3\nFormat/Info : Audio Coding 3\nMode extension : CM (complete main)\nFormat settings, Endianness : Big\nCodec ID : A_AC3\nDuration : 1h 24mn\nBit rate mode : Constant\nBit rate : 640 Kbps\nChannel(s) : 6 channels\nChannel positions : Front: L C R, Side: L R, LFE\nSampling rate : 48.0 KHz\nBit depth : 16 bits\nCompression mode : Lossy\nStream size : 388 MiB (29%)\nDefault : Yes\nForced : No","torrent":{"xt":"urn:btih:d0b54893071246580b336a97b0e7c36e6ce6e7ec","amp;dn":"Rolling+Stones+-+At+the+Max+1991+720p+AC3+5.1+x264-%5BMULVAcoded%5D","amp;tr":["udp%3A%2F%2Ftracker.openbittorrent.com%3A80","udp%3A%2F%2Fopen.demonii.com%3A1337","udp%3A%2F%2Ftracker.coppersurfer.tk%3A6969","udp%3A%2F%2Fexodus.desync.com%3A6969"],"infoHash":"d0b54893071246580b336a97b0e7c36e6ce6e7ec","infoHashBuffer":{"type":"Buffer","data":[208,181,72,147,7,18,70,88,11,51,106,151,176,231,195,110,108,230,231,236]},"announce":[],"urlList":[]}}